<?xml version="1.0" encoding="UTF-8"?>
<svg version="1.1" xmlns="http://www.w3.org/2000/svg" width="32" height="32">
<path d="M0 0 C4.8846525 2.26787438 7.73212562 5.1153475 10 10 C10.75381535 15.5997712 10.77303575 20.33499991 8.375 25.5 C3.80134327 30.3143755 0.6912538 32.25156236 -6 32.5 C-12.6912538 32.25156236 -15.80134327 30.3143755 -20.375 25.5 C-22.77303575 20.33499991 -22.75381535 15.5997712 -22 10 C-17.52212837 0.3553534 -9.85292056 -1.32635469 0 0 Z " fill="#0D38A8" transform="translate(22,0)"/>
<path d="M0 0 C3.11033967 0.08639974 3.11033967 0.08639974 6.5625 -0.625 C7.696875 -0.74875 8.83125 -0.8725 10 -1 C10.66 -0.34 11.32 0.32 12 1 C11.6875 3.375 11.6875 3.375 11 6 C10.814375 6.763125 10.62875 7.52625 10.4375 8.3125 C10.2209375 9.1478125 10.2209375 9.1478125 10 10 C11.32 9.34 12.64 8.68 14 8 C13.34 9.32 12.68 10.64 12 12 C10.68 12 9.36 12 8 12 C8 10.35 8 8.7 8 7 C7.34 7 6.68 7 6 7 C5.67 8.65 5.34 10.3 5 12 C3.6078125 12.12375 3.6078125 12.12375 2.1875 12.25 C-1.58342128 13.1372756 -1.80281403 14.03857543 -4 17 C-6.6875 17.25 -6.6875 17.25 -9 17 C-9 15 -9 13 -9 11 C-9.33 10.67 -9.66 10.34 -10 10 C-10.01953125 8.00390625 -10.01953125 8.00390625 -9.8125 5.5625 C-9.72935547 4.35787109 -9.72935547 4.35787109 -9.64453125 3.12890625 C-9 1 -9 1 -7.109375 -0.30859375 C-4.39964973 -1.19678148 -2.73127058 -0.70032579 0 0 Z " fill="#3B5EB9" transform="translate(14,8)"/>
<path d="M0 0 C-0.33 1.32 -0.66 2.64 -1 4 C-2.98 4 -4.96 4 -7 4 C-6.67 5.65 -6.34 7.3 -6 9 C-5.01 9.33 -4.02 9.66 -3 10 C-3 9.01 -3 8.02 -3 7 C-2.34 7 -1.68 7 -1 7 C-0.34 8.65 0.32 10.3 1 12 C-3.30769231 16.92307692 -3.30769231 16.92307692 -6.8125 17.3125 C-7.534375 17.209375 -8.25625 17.10625 -9 17 C-9 15 -9 13 -9 11 C-9.33 10.67 -9.66 10.34 -10 10 C-10.01953125 8.00390625 -10.01953125 8.00390625 -9.8125 5.5625 C-9.72935547 4.35787109 -9.72935547 4.35787109 -9.64453125 3.12890625 C-9 1 -9 1 -7.12109375 -0.30859375 C-4.42722961 -1.18670416 -2.69426369 -0.74840658 0 0 Z " fill="#CBD4EC" transform="translate(14,8)"/>
<path d="M0 0 C2.4375 0.3125 2.4375 0.3125 4.4375 2.3125 C4.125 4.6875 4.125 4.6875 3.4375 7.3125 C3.251875 8.075625 3.06625 8.83875 2.875 9.625 C2.6584375 10.4603125 2.6584375 10.4603125 2.4375 11.3125 C3.7575 10.6525 5.0775 9.9925 6.4375 9.3125 C5.7775 10.6325 5.1175 11.9525 4.4375 13.3125 C3.1175 13.3125 1.7975 13.3125 0.4375 13.3125 C0.1075 11.0025 -0.2225 8.6925 -0.5625 6.3125 C0.0975 6.3125 0.7575 6.3125 1.4375 6.3125 C1.4375 4.9925 1.4375 3.6725 1.4375 2.3125 C-0.8725 2.6425 -3.1825 2.9725 -5.5625 3.3125 C-3.75137927 1.02476855 -2.95529457 0.36040178 0 0 Z " fill="#D9DFF1" transform="translate(21.5625,6.6875)"/>
<path d="M0 0 C0.042721 1.66611905 0.04063832 3.33382885 0 5 C-1 6 -1 6 -3.5625 6.0625 C-4.7690625 6.0315625 -4.7690625 6.0315625 -6 6 C-6 4.68 -6 3.36 -6 2 C-2.25 0 -2.25 0 0 0 Z " fill="#C4CEEA" transform="translate(11,19)"/>
<path d="M0 0 C0.66 0 1.32 0 2 0 C2.66 1.65 3.32 3.3 4 5 C2.68 5.99 1.36 6.98 0 8 C0 6.68 0 5.36 0 4 C-0.99 4.33 -1.98 4.66 -3 5 C-3 4.34 -3 3.68 -3 3 C-2.01 3 -1.02 3 0 3 C0 2.01 0 1.02 0 0 Z " fill="#F1F4FA" transform="translate(11,15)"/>
<path d="M0 0 C1.65 0 3.3 0 5 0 C4.67 1.65 4.34 3.3 4 5 C2.68 4.67 1.36 4.34 0 4 C0 2.68 0 1.36 0 0 Z " fill="#123BAA" transform="translate(7,13)"/>
<path d="M0 0 C1.2380014 3.57644848 0.74926071 6.33694766 0 10 C-0.66 10 -1.32 10 -2 10 C-2.25 3.375 -2.25 3.375 0 0 Z " fill="#ECF0F8" transform="translate(19,10)"/>
<path d="M0 0 C1.32 0 2.64 0 4 0 C4 1.32 4 2.64 4 4 C3.34 4 2.68 4 2 4 C1.67 5.98 1.34 7.96 1 10 C0.67 10 0.34 10 0 10 C0 6.7 0 3.4 0 0 Z " fill="#2C51B4" transform="translate(19,9)"/>
<path d="M0 0 C0.66 1.32 1.32 2.64 2 4 C3.32 3.34 4.64 2.68 6 2 C5.34 3.32 4.68 4.64 4 6 C2.68 6 1.36 6 0 6 C0 4.02 0 2.04 0 0 Z " fill="#E7EBF6" transform="translate(22,14)"/>
<path d="M0 0 C0.99 0.33 1.98 0.66 3 1 C3.33 2.98 3.66 4.96 4 7 C2.68 6.34 1.36 5.68 0 5 C0 3.35 0 1.7 0 0 Z " fill="#DEE3F3" transform="translate(4,13)"/>
</svg>
